<?xml version="1.0" encoding="utf-8"?>
<!-- Generator: Adobe Illustrator 19.0.0, SVG Export Plug-In . SVG Version: 6.00 Build 0)  -->
<svg version="1.1" id="Layer_1" xmlns="http://www.w3.org/2000/svg"  x="0px" y="0px"
	 viewBox="-259 378 92 38" style="enable-background:new -259 378 92 38;" xml:space="preserve">
<style type="text/css">
	.st0{fill:#6AC045;}
</style>
<g>
	<path class="st0" d="M-243.5,410.5c-10.4,0-18.8-8.4-18.8-18.8c0-6.9,3.7-12.9,9.3-16.2c-6.9,3.1-11.7,10.1-11.7,18.1
		c0,11,8.9,19.9,19.9,19.9c10.5,0,19.1-8.1,19.8-18.4C-226.6,403.9-234.2,410.5-243.5,410.5z"/>
	<circle class="st0" cx="-239.5" cy="401.2" r="5"/>
	<circle class="st0" cx="-252.6" cy="397.7" r="5"/>
	<circle class="st0" cx="-250.5" cy="384.8" r="5"/>
	<circle class="st0" cx="-244.5" cy="392.7" r="1.9"/>
	<g>
		<path class="st0" d="M-226.4,406l2-10.8l-5.1-15.7h6l2.8,10.2l6.7-10.2h6.8l-11.4,15.5l-2.1,10L-226.4,406z"/>
		<path class="st0" d="M-202.4,384.5h-9.6l3.8-4.9h21.7c0,0-3.7,2.3-4.2,4.9h-5.9l-4,20.6l-5.7-0.4L-202.4,384.5z"/>
		<path class="st0" d="M-191.4,399.9c1.6,0.9,3.8,1.7,6.2,1.7c2.2,0,4.2-1,4.2-3.1c0-1.5-1.1-2.5-3.6-3.7c-2.8-1.5-5.5-3.6-5.5-7
			c0-5.3,4.7-8.6,10.4-8.6c3.2,0,5.1,0.7,6.2,1.3l-1.8,4.7c-0.9-0.5-2.7-1.2-4.9-1.2c-2.6,0-4,1.3-4,2.8c0,1.5,1.6,2.5,3.8,3.7
			c3.2,1.7,5.3,3.8,5.3,7c0,5.9-4.9,8.9-10.8,8.9c-3.7,0-6.3-0.9-7.6-1.9L-191.4,399.9z"/>
	</g>
	<path class="st0" d="M-242.5,413.4c1.1,0.1,30.6-6.9,59.6,0.1c0,0-16.9-6.1-37.8-4.3c0,0,12.2-3.2,38.9,1.6c0,0-26.6-8.4-51.3-1.1
		C-236.8,410.6-243.7,413.3-242.5,413.4z"/>
</g>
<g>
	<path class="st0" d="M-165.1,390h-2.1l1.8-8.3h-2.9l0.3-1.7h7.9l-0.3,1.7h-2.9L-165.1,390z"/>
	<path class="st0" d="M-160.5,386c0-0.6,0.1-1.2,0.3-1.9c0.2-0.9,0.6-1.6,1.1-2.3c0.5-0.6,1.1-1.2,1.8-1.5c0.7-0.4,1.5-0.6,2.5-0.6
		c1.2,0,2.2,0.4,3,1.2c0.8,0.8,1.1,1.8,1.1,3.1c0,1.1-0.2,2.1-0.7,3.1c-0.5,1-1.2,1.8-2,2.3c-0.9,0.5-1.8,0.8-2.9,0.8
		c-0.9,0-1.7-0.2-2.4-0.6c-0.6-0.4-1.1-0.9-1.3-1.6S-160.5,386.7-160.5,386z M-158.5,386c0,0.7,0.2,1.3,0.6,1.7
		c0.4,0.5,1,0.7,1.7,0.7c0.6,0,1.1-0.2,1.6-0.6c0.5-0.4,0.9-0.9,1.3-1.7c0.3-0.7,0.5-1.5,0.5-2.2c0-0.8-0.2-1.4-0.6-1.9
		c-0.4-0.4-1-0.7-1.6-0.7c-1,0-1.8,0.5-2.5,1.4C-158.2,383.8-158.5,384.9-158.5,386z"/>
	<path class="st0" d="M-148.2,390h-2.1l2.1-10h4.5c0.8,0,1.4,0.1,1.8,0.2c0.4,0.2,0.8,0.4,1,0.9c0.3,0.4,0.4,0.9,0.4,1.5
		c0,0.9-0.3,1.6-0.8,2.1s-1.3,0.9-2.3,1c0.3,0.2,0.5,0.5,0.7,0.9c0.5,0.8,1,1.9,1.5,3.3h-2.2c-0.2-0.6-0.5-1.4-1-2.6
		c-0.3-0.6-0.6-1.1-0.9-1.3c-0.2-0.1-0.5-0.2-1-0.2h-0.8L-148.2,390z M-147,384.3h1.1c1.1,0,1.8-0.1,2.2-0.2
		c0.4-0.1,0.6-0.3,0.9-0.6c0.2-0.3,0.3-0.6,0.3-0.9c0-0.4-0.1-0.6-0.4-0.8c-0.2-0.1-0.6-0.2-1.2-0.2h-2.3L-147,384.3z"/>
	<path class="st0" d="M-138.1,390h-2.1l2.1-10h4.5c0.8,0,1.4,0.1,1.8,0.2c0.4,0.2,0.8,0.4,1,0.9c0.3,0.4,0.4,0.9,0.4,1.5
		c0,0.9-0.3,1.6-0.8,2.1c-0.5,0.6-1.3,0.9-2.3,1c0.3,0.2,0.5,0.5,0.7,0.9c0.5,0.8,1,1.9,1.5,3.3h-2.2c-0.2-0.6-0.5-1.4-1-2.6
		c-0.3-0.6-0.6-1.1-0.9-1.3c-0.2-0.1-0.5-0.2-1-0.2h-0.8L-138.1,390z M-136.9,384.3h1.1c1.1,0,1.8-0.1,2.2-0.2
		c0.4-0.1,0.6-0.3,0.9-0.6c0.2-0.3,0.3-0.6,0.3-0.9c0-0.4-0.1-0.6-0.4-0.8c-0.2-0.1-0.6-0.2-1.2-0.2h-2.3L-136.9,384.3z"/>
	<path class="st0" d="M-130.1,390l2.1-10h7.4l-0.3,1.7h-5.4l-0.5,2.3h5.2l-0.3,1.7h-5.2l-0.6,2.7h5.8l-0.4,1.7H-130.1z"/>
	<path class="st0" d="M-112.7,390h-1.9l-2.7-6.7l-1.4,6.7h-1.9l2.1-10h1.9l2.7,6.7l1.4-6.7h1.9L-112.7,390z"/>
	<path class="st0" d="M-106.3,390h-2.1l1.8-8.3h-2.9l0.3-1.7h7.9l-0.3,1.7h-2.9L-106.3,390z"/>
	<path class="st0" d="M-169.5,406.8l2.1-10h3.4c0.7,0,1.3,0,1.6,0.1c0.5,0.1,0.9,0.2,1.3,0.4c0.3,0.2,0.6,0.5,0.8,0.8
		c0.2,0.3,0.3,0.7,0.3,1.1c0,0.6-0.2,1-0.5,1.4c-0.3,0.4-0.8,0.7-1.4,0.9c0.5,0.1,0.9,0.4,1.2,0.8c0.3,0.4,0.4,0.8,0.4,1.2
		c0,0.6-0.2,1.2-0.5,1.7c-0.3,0.5-0.8,0.9-1.4,1.2c-0.6,0.2-1.4,0.4-2.5,0.4H-169.5z M-167.1,405.1h2c0.8,0,1.4-0.1,1.7-0.2
		c0.3-0.1,0.5-0.3,0.7-0.5c0.2-0.2,0.3-0.5,0.3-0.8c0-0.3-0.1-0.6-0.4-0.8c-0.2-0.2-0.7-0.3-1.2-0.3h-2.5L-167.1,405.1z
		 M-166.2,400.8h1.6c0.7,0,1.2,0,1.5-0.2s0.5-0.3,0.7-0.5c0.2-0.2,0.2-0.5,0.2-0.7c0-0.3-0.1-0.5-0.2-0.6c-0.1-0.2-0.4-0.3-0.6-0.3
		c-0.2,0-0.5,0-1.1,0h-1.6L-166.2,400.8z"/>
	<path class="st0" d="M-152.8,404.5h-4l-1.2,2.2h-2.1l5.7-10h2.3l1.6,10h-2L-152.8,404.5z M-153.1,402.9l-0.6-4l-2.4,4H-153.1z"/>
	<path class="st0" d="M-142,403.1l2.1,0.3c-0.4,1.1-1,2-1.8,2.6c-0.8,0.6-1.8,0.9-2.9,0.9c-1.2,0-2.2-0.4-2.9-1.1
		c-0.7-0.7-1-1.8-1-3.2c0-1.1,0.2-2.2,0.7-3.1c0.5-0.9,1.1-1.7,1.9-2.2s1.7-0.8,2.7-0.8c1.1,0,2,0.3,2.6,0.9
		c0.7,0.6,1.1,1.4,1.2,2.4l-2,0.2c-0.1-0.6-0.3-1-0.6-1.3c-0.3-0.3-0.7-0.4-1.2-0.4c-0.6,0-1.1,0.2-1.6,0.5
		c-0.5,0.3-0.9,0.9-1.2,1.6c-0.3,0.7-0.4,1.5-0.4,2.2c0,0.8,0.2,1.4,0.6,1.9c0.4,0.4,0.9,0.7,1.4,0.7c0.5,0,1-0.2,1.5-0.5
		C-142.6,404.3-142.2,403.8-142,403.1z"/>
	<path class="st0" d="M-139.2,406.8l2.1-10h2.1l-0.9,4.3l4.6-4.3h2.8l-4.5,3.9l3.3,6.1h-2.3l-2.5-4.8l-1.9,1.7l-0.6,3.1H-139.2z"/>
	<path class="st0" d="M-126.9,396.7h2.1l-1.1,5.4l-0.3,1.3c0,0.1,0,0.2,0,0.3c0,0.4,0.1,0.7,0.4,1c0.3,0.3,0.7,0.4,1.3,0.4
		c0.5,0,0.9-0.1,1.2-0.3c0.3-0.2,0.6-0.5,0.8-0.8c0.2-0.4,0.4-1,0.5-1.9l1.1-5.5h2.1l-1.1,5.5c-0.2,1.2-0.5,2-0.8,2.6
		s-0.8,1.1-1.4,1.5c-0.6,0.4-1.4,0.6-2.4,0.6c-1.2,0-2.1-0.3-2.7-0.9c-0.6-0.6-0.9-1.3-0.9-2.2c0-0.2,0-0.4,0-0.6
		c0-0.1,0.1-0.6,0.2-1.2L-126.9,396.7z"/>
	<path class="st0" d="M-116.9,406.8h-2.1l2.1-10h4.1c0.7,0,1.3,0.1,1.7,0.3c0.4,0.2,0.8,0.5,1,0.8c0.2,0.4,0.4,0.9,0.4,1.4
		c0,0.5-0.1,1-0.3,1.5s-0.4,0.9-0.7,1.1c-0.3,0.3-0.6,0.5-0.9,0.7c-0.3,0.1-0.8,0.3-1.3,0.3c-0.3,0-0.9,0.1-1.8,0.1h-1.3
		L-116.9,406.8z M-115.7,401.3h0.6c1.1,0,1.8-0.1,2.2-0.2c0.4-0.1,0.7-0.4,0.9-0.7c0.2-0.3,0.3-0.6,0.3-1c0-0.2-0.1-0.4-0.2-0.6
		c-0.1-0.2-0.3-0.3-0.5-0.3c-0.2-0.1-0.6-0.1-1.3-0.1h-1.5L-115.7,401.3z"/>
</g>
</svg>
